<svg width="10" height="10" viewBox="0 0 10 10" fill="none" xmlns="http://www.w3.org/2000/svg">
<path fill-rule="evenodd" clip-rule="evenodd" d="M4.41479 1.23268C4.41479 0.90313 4.68188 0.636719 5.01075 0.636719C5.33962 0.636719 5.60671 0.90313 5.60671 1.23268V4.51551H9.05116C9.38002 4.51551 9.64711 4.78192 9.64711 5.11147C9.64711 5.44101 9.38002 5.70743 9.05116 5.70743H5.60671V9.31349C5.60671 9.64303 5.33962 9.90944 5.01075 9.90944C4.68188 9.90944 4.41479 9.64303 4.41479 9.31349V5.70743H0.970349C0.641479 5.70743 0.37439 5.44101 0.37439 5.11147C0.37439 4.78192 0.641479 4.51551 0.970349 4.51551H4.41479V1.23268Z" fill="#6F7DFF"/>
</svg>
